PathFileType	4	(x/y/z)	S04_M20_T34.trc
DataRate	CameraRate	NumFrames	NumMarkers	Units	OrigDataRate	OrigDataStartFrame	OrigNumFrames
240	240	11	51	mm	240	268	535
Frame#	Time	Sternum			R.Acromium			L.Acromium			Top.Head			R.ASIS			L.ASIS			R.PSIS			L.PSIS			R.Great.Tro			L.Great.Tro			R.Iliac.Crest			L.Iliac.Crest			V.Sacral			R.Thigh.Upper.Post			R.Thigh.Lower.Ant			R.Thigh.Lower.Post			R.Thigh.Upper.Ant			R.Knee.Lat			R.Knee.Med			R.Shank.Upper.Post			R.Shank.Lower.Ant			R.Shank.Lower.Post			R.Shank.Upper.Ant			R.Ankle.Lat			R.Ankle.Med			R.Heel.Upper			R.Heel.Med			R.Heel.Lat			R.Toe.Lat			R.Toe.Med			R.Toe.Tip			L.Thigh.Upper.Post			L.Thigh.Lower.Ant			L.Thigh.Lower.Post			L.Thigh.Upper.Ant			L.Knee.Lat			L.Knee.Med			L.Shank.Upper.Post			L.Shank.Lower.Ant			L.Shank.Lower.Post			L.Shank.Upper.Ant			L.Ankle.Lat			L.Ankle.Med			L.Heel.Upper			L.Heel.Med			L.Heel.Lat			L.Toe.Lat			L.Toe.Med			L.Toe.Tip			Cervical.Spine			Back			
		X1	Y1	Z1	X2	Y2	Z2	X3	Y3	Z3	X4	Y4	Z4	X5	Y5	Z5	X6	Y6	Z6	X7	Y7	Z7	X8	Y8	Z8	X9	Y9	Z9	X10	Y10	Z10	X11	Y11	Z11	X12	Y12	Z12	X13	Y13	Z13	X14	Y14	Z14	X15	Y15	Z15	X16	Y16	Z16	X17	Y17	Z17	X18	Y18	Z18	X19	Y19	Z19	X20	Y20	Z20	X21	Y21	Z21	X22	Y22	Z22	X23	Y23	Z23	X24	Y24	Z24	X25	Y25	Z25	X26	Y26	Z26	X27	Y27	Z27	X28	Y28	Z28	X29	Y29	Z29	X30	Y30	Z30	X31	Y31	Z31	X32	Y32	Z32	X33	Y33	Z33	X34	Y34	Z34	X35	Y35	Z35	X36	Y36	Z36	X37	Y37	Z37	X38	Y38	Z38	X39	Y39	Z39	X40	Y40	Z40	X41	Y41	Z41	X42	Y42	Z42	X43	Y43	Z43	X44	Y44	Z44	X45	Y45	Z45	X46	Y46	Z46	X47	Y47	Z47	X48	Y48	Z48	X49	Y49	Z49	X50	Y50	Z50	X51	Y51	Z51	

268	1.1125	627.02	1282	323.51	502.32	1508.7	506.69	479.02	1496.2	157.22	514.07	1834	326.21	613.04	1001.2	456.1	602.86	1008.3	202.29	393.69	1038.9	359.97	400.49	1039.9	278.74	526.43	923.45	520.5	488.7	923.98	138.46	525.01	1086.5	501.35	499.53	1095.7	159.08	376.01	997.28	319.96	544.75	660.21	496.28	621.18	584.45	452.09	548.77	570.72	477.98	625.95	692.68	478.6	578.42	506.93	464.23	536.3	502.72	335.5	494.17	282.16	462.47	550.51	203.71	408.85	487.98	213.55	445.19	554.68	272.57	435.2	489.33	104.04	421.18	496.93	117.5	329.42	417.69	74.829	370.49	422.92	44.169	340.17	423.65	43.513	406.08	598.95	41.447	438.36	622.85	40.043	316.08	689.49	59.802	357.02	564.42	686.27	145.25	676.37	628.17	142.23	607.42	608.3	155.48	628.87	704.73	129.56	663.11	538.04	155.79	678.27	522	288.05	496.73	448.74	176.97	496.2	337.75	171.11	454.02	384.45	184.36	539.32	401.18	163.36	384.16	232.5	194.65	401.37	240	287.07	308.03	258.29	248.83	300.19	235.59	283.65	291.34	233.84	222.16	422.75	110.4	173.74	464.51	101.63	284.42	509.88	75.21	233.09	444.01	1552.6	339.52	367.94	1292.8	318.84
269	1.1167	631.77	1282.2	323.66	506.95	1508.8	506.64	484.18	1496.5	157.13	518.95	1834.2	326.13	617.03	1001.3	456.42	607.89	1008.6	202.59	398.08	1039.1	359.31	405.21	1040	278.11	529.96	923.52	520.35	494.2	924.31	138.09	528.84	1086.6	501.32	504.77	1096	158.91	380.58	997.43	319.24	546.72	660.29	496.28	622.82	584	452.44	550.3	570.78	478.15	628.22	692.22	478.86	579.52	506.77	464.52	537.78	502.66	335.63	494.6	282.24	462.47	550.83	203.64	408.97	488.22	213.66	445.12	555.15	272.48	435.37	489.4	104.11	421.12	497.02	117.55	329.36	417.7	74.946	370.46	422.86	44.243	340.1	423.66	43.619	406.03	598.97	41.415	438.38	622.88	39.957	316.05	689.6	59.588	357.08	571.54	687.05	145.18	684.02	629.9	142.51	615.17	609.47	155.57	635.89	706.04	129.63	671.55	539.65	156.17	686.82	523.89	288.39	506.47	447.64	177.2	507.71	336.67	171.12	464.8	382.66	184.45	549.8	400.81	163.46	397.44	229.52	194.45	414.42	237.18	286.97	320.79	253.82	248.7	313.36	230.86	283.46	304.6	229.11	221.93	438.32	108.27	173.33	480.14	99.965	284.03	526.03	74.506	232.68	448.91	1552.8	339.39	372.76	1293.1	318.53
270	1.1208	636.52	1282.3	323.8	511.59	1509	506.58	489.34	1496.7	157.04	523.84	1834.3	326.05	621	1001.3	456.73	612.9	1008.9	202.88	402.48	1039.2	358.65	409.92	1040.2	277.48	533.49	923.58	520.21	499.69	924.62	137.73	532.69	1086.7	501.29	509.99	1096.2	158.75	385.14	997.55	318.52	548.71	660.37	496.27	624.46	583.55	452.78	551.84	570.84	478.31	630.49	691.75	479.12	580.63	506.6	464.81	539.27	502.6	335.75	495.03	282.33	462.48	551.15	203.58	409.09	488.45	213.78	445.05	555.62	272.39	435.54	489.47	104.17	421.07	497.1	117.6	329.31	417.7	75.069	370.43	422.8	44.319	340.04	423.67	43.731	405.98	598.98	41.383	438.41	622.91	39.869	316.02	689.71	59.372	357.13	578.59	687.8	145.12	691.58	631.57	142.77	622.82	610.61	155.66	642.83	707.31	129.69	679.91	541.21	156.55	695.26	525.74	288.72	516.18	446.46	177.39	519.23	335.56	171.11	475.58	380.79	184.5	560.25	400.38	163.53	410.78	226.48	194.22	427.51	234.33	286.85	333.63	249.28	248.51	326.61	226.09	283.23	317.97	224.3	221.65	453.98	106.13	172.95	495.82	98.326	283.68	542.23	73.841	232.32	453.82	1553	339.26	377.57	1293.4	318.21
271	1.125	641.27	1282.4	323.93	516.23	1509	506.51	494.52	1496.9	156.93	528.73	1834.5	325.97	624.97	1001.4	457.03	617.91	1009.2	203.17	406.87	1039.3	357.99	414.63	1040.2	276.85	537.03	923.61	520.06	505.17	924.89	137.38	536.57	1086.8	501.24	515.19	1096.4	158.58	389.71	997.63	317.82	550.72	660.43	496.26	626.12	583.1	453.11	553.4	570.9	478.46	632.77	691.27	479.36	581.75	506.44	465.09	540.76	502.53	335.86	495.46	282.42	462.47	551.47	203.53	409.21	488.7	213.89	444.97	556.1	272.31	435.71	489.53	104.24	421.02	497.19	117.65	329.25	417.71	75.197	370.4	422.76	44.398	339.98	423.69	43.85	405.93	599	41.352	438.43	622.92	39.78	315.98	689.82	59.151	357.19	585.58	688.52	145.05	699.05	633.2	143.01	630.38	611.71	155.74	649.71	708.52	129.74	688.18	542.73	156.9	703.6	527.55	289.03	525.87	445.21	177.53	530.76	334.4	171.1	486.36	378.86	184.52	570.68	399.9	163.58	424.19	223.4	193.97	440.63	231.46	286.71	346.55	244.68	248.25	339.94	221.27	282.94	331.43	219.45	221.33	469.72	103.98	172.6	511.54	96.722	283.36	558.48	73.22	232.02	458.73	1553.2	339.11	382.38	1293.7	317.88
272	1.1292	646.01	1282.5	324.05	520.88	1509.1	506.43	499.7	1497.1	156.81	533.62	1834.6	325.89	628.93	1001.4	457.32	622.92	1009.4	203.44	411.27	1039.3	357.34	419.33	1040.3	276.23	540.59	923.63	519.9	510.64	925.14	137.04	540.46	1086.9	501.19	520.36	1096.5	158.41	394.27	997.7	317.14	552.74	660.49	496.25	627.79	582.66	453.42	554.98	570.94	478.62	635.05	690.79	479.6	582.89	506.26	465.37	542.27	502.46	335.97	495.89	282.52	462.47	551.79	203.47	409.34	488.95	214.01	444.88	556.58	272.23	435.87	489.6	104.31	420.96	497.28	117.7	329.19	417.73	75.328	370.36	422.72	44.478	339.92	423.71	43.976	405.88	599.02	41.32	438.46	622.92	39.689	315.94	689.94	58.928	357.24	592.5	689.21	144.98	706.42	634.76	143.25	637.86	612.78	155.82	656.52	709.69	129.79	696.35	544.2	157.25	711.83	529.31	289.31	535.54	443.88	177.62	542.3	333.19	171.07	497.16	376.87	184.5	581.09	399.37	163.61	437.68	220.28	193.71	453.79	228.57	286.56	359.55	240.03	247.94	353.36	216.42	282.6	345	214.53	220.95	485.55	101.84	172.27	527.31	95.159	283.1	574.77	72.648	231.79	463.65	1553.4	338.95	387.19	1293.9	317.55
273	1.1333	650.76	1282.5	324.17	525.52	1509.1	506.35	504.89	1497.2	156.68	538.53	1834.6	325.81	632.87	1001.4	457.59	627.92	1009.7	203.71	415.67	1039.4	356.7	424.04	1040.3	275.61	544.16	923.63	519.75	516.09	925.35	136.7	544.37	1086.9	501.13	525.52	1096.6	158.24	398.82	997.73	316.46	554.79	660.55	496.23	629.47	582.22	453.73	556.57	570.98	478.77	637.36	690.3	479.82	584.05	506.08	465.63	543.79	502.39	336.07	496.33	282.62	462.47	552.1	203.42	409.46	489.2	214.13	444.79	557.06	272.15	436.04	489.66	104.39	420.91	497.36	117.75	329.12	417.76	75.463	370.33	422.69	44.559	339.87	423.73	44.109	405.82	599.04	41.289	438.48	622.91	39.597	315.9	690.06	58.702	357.3	599.36	689.86	144.91	713.71	636.27	143.47	645.24	613.8	155.9	663.26	710.81	129.83	704.44	545.62	157.58	719.94	531.02	289.58	545.19	442.48	177.66	553.86	331.95	171.02	507.96	374.81	184.43	591.47	398.79	163.6	451.23	217.12	193.42	466.98	225.67	286.4	372.64	235.33	247.56	366.85	211.54	282.21	358.67	209.58	220.52	501.46	99.707	171.98	543.11	93.641	282.88	591.11	72.13	231.63	468.58	1553.5	338.78	392	1294.1	317.2
274	1.1375	655.5	1282.5	324.28	530.16	1509.1	506.25	510.09	1497.3	156.54	543.44	1834.7	325.72	636.79	1001.4	457.86	632.93	1009.8	203.97	420.07	1039.4	356.05	428.74	1040.4	275	547.74	923.61	519.59	521.54	925.55	136.37	548.3	1086.9	501.07	530.67	1096.7	158.06	403.38	997.75	315.79	556.85	660.6	496.2	631.16	581.78	454.03	558.19	571.02	478.91	639.67	689.81	480.04	585.22	505.9	465.9	545.34	502.31	336.16	496.78	282.73	462.46	552.42	203.37	409.58	489.47	214.26	444.7	557.54	272.08	436.2	489.72	104.47	420.86	497.46	117.8	329.05	417.8	75.6	370.28	422.68	44.642	339.82	423.76	44.25	405.77	599.06	41.258	438.5	622.89	39.503	315.85	690.18	58.472	357.35	606.15	690.49	144.83	720.9	637.72	143.68	652.54	614.79	155.97	669.93	711.88	129.87	712.43	546.99	157.9	727.95	532.67	289.82	554.82	441	177.64	565.43	330.67	170.97	518.77	372.68	184.32	601.84	398.16	163.57	464.87	213.93	193.11	480.21	222.76	286.23	385.81	230.58	247.13	380.42	206.64	281.77	372.44	204.58	220.04	517.44	97.583	171.73	558.95	92.174	282.71	607.48	71.67	231.54	473.5	1553.6	338.6	396.81	1294.3	316.84
275	1.1417	660.24	1282.4	324.38	534.81	1509.1	506.15	515.29	1497.3	156.39	548.36	1834.7	325.64	640.7	1001.3	458.11	637.93	1010	204.22	424.48	1039.3	355.42	433.45	1040.3	274.39	551.34	923.57	519.43	526.98	925.71	136.04	552.25	1086.9	501	535.79	1096.8	157.89	407.94	997.74	315.14	558.93	660.66	496.17	632.87	581.35	454.31	559.81	571.04	479.05	642	689.31	480.25	586.42	505.71	466.15	546.9	502.23	336.25	497.23	282.85	462.45	552.74	203.32	409.7	489.74	214.39	444.6	558.03	272.01	436.37	489.79	104.55	420.81	497.55	117.86	328.98	417.85	75.737	370.23	422.69	44.725	339.77	423.8	44.399	405.71	599.08	41.228	438.52	622.85	39.406	315.8	690.31	58.238	357.41	612.87	691.08	144.75	728.01	639.12	143.88	659.76	615.73	156.03	676.54	712.9	129.9	720.34	548.31	158.21	735.84	534.27	290.04	564.43	439.44	177.56	577.01	329.35	170.91	529.59	370.49	184.17	612.19	397.48	163.52	478.57	210.72	192.79	493.47	219.84	286.05	399.06	225.79	246.63	394.07	201.72	281.28	386.32	199.55	219.53	533.51	95.475	171.52	574.82	90.763	282.59	623.88	71.272	231.52	478.44	1553.7	338.41	401.62	1294.4	316.47
276	1.1458	664.99	1282.4	324.47	539.46	1509	506.04	520.51	1497.3	156.23	553.29	1834.7	325.55	644.6	1001.2	458.36	642.94	1010.1	204.47	428.9	1039.3	354.78	438.16	1040.3	273.79	554.94	923.51	519.27	532.4	925.85	135.72	556.21	1086.9	500.92	540.9	1096.8	157.71	412.51	997.7	314.5	561.04	660.7	496.14	634.6	580.92	454.59	561.46	571.06	479.19	644.34	688.81	480.46	587.63	505.52	466.4	548.48	502.15	336.34	497.69	282.97	462.44	553.07	203.27	409.82	490.01	214.52	444.5	558.53	271.95	436.53	489.86	104.64	420.75	497.66	117.93	328.91	417.9	75.876	370.18	422.71	44.81	339.73	423.84	44.555	405.65	599.1	41.198	438.54	622.8	39.308	315.75	690.44	58.001	357.47	619.53	691.63	144.66	735.03	640.45	144.07	666.9	616.62	156.08	683.09	713.87	129.92	728.15	549.57	158.49	743.61	535.82	290.23	574.02	437.82	177.43	588.61	327.99	170.83	540.42	368.25	183.97	622.53	396.75	163.45	492.36	207.48	192.45	506.78	216.93	285.86	412.4	220.97	246.08	407.81	196.8	280.75	400.29	194.5	218.97	549.64	93.389	171.34	590.72	89.411	282.53	640.3	70.941	231.59	483.37	1553.8	338.21	406.43	1294.6	316.09
277	1.15	669.73	1282.3	324.55	544.1	1509	505.92	525.72	1497.3	156.06	558.24	1834.6	325.46	648.49	1001.1	458.6	647.95	1010.2	204.71	433.32	1039.2	354.15	442.87	1040.2	273.19	558.57	923.43	519.11	537.82	925.96	135.41	560.18	1086.9	500.84	545.99	1096.8	157.53	417.08	997.64	313.86	563.16	660.75	496.1	636.34	580.49	454.87	563.13	571.07	479.32	646.7	688.3	480.66	588.86	505.32	466.64	550.09	502.06	336.42	498.16	283.09	462.44	553.4	203.22	409.94	490.3	214.65	444.4	559.03	271.89	436.7	489.94	104.74	420.69	497.79	118	328.83	417.97	76.015	370.12	422.74	44.895	339.68	423.89	44.719	405.6	599.13	41.168	438.56	622.74	39.208	315.69	690.57	57.761	357.53	626.13	692.16	144.56	741.97	641.72	144.25	673.96	617.47	156.12	689.57	714.78	129.94	735.86	550.77	158.77	751.27	537.3	290.4	583.59	436.12	177.23	600.22	326.6	170.74	551.25	365.94	183.73	632.84	395.97	163.35	506.23	204.24	192.1	520.12	214.02	285.66	425.83	216.12	245.48	421.62	191.86	280.17	414.37	189.42	218.37	565.85	91.331	171.21	606.64	88.123	282.51	656.75	70.68	231.72	488.31	1553.8	337.99	411.24	1294.7	315.7
278	1.1542	674.47	1282.1	324.63	548.75	1508.9	505.8	530.95	1497.3	155.87	563.19	1834.6	325.37	652.37	1000.9	458.83	652.96	1010.2	204.94	437.75	1039.1	353.53	447.59	1040.1	272.6	562.2	923.34	518.95	543.24	926.05	135.1	564.17	1086.8	500.75	551.07	1096.7	157.34	421.65	997.56	313.23	565.31	660.79	496.05	638.1	580.05	455.13	564.82	571.08	479.45	649.07	687.79	480.86	590.11	505.12	466.88	551.72	501.97	336.49	498.64	283.23	462.43	553.74	203.18	410.05	490.6	214.8	444.29	559.54	271.83	436.86	490.02	104.84	420.62	497.93	118.09	328.76	418.05	76.155	370.05	422.79	44.981	339.64	423.94	44.89	405.54	599.15	41.14	438.58	622.67	39.107	315.64	690.7	57.516	357.59	632.66	692.64	144.45	748.83	642.94	144.42	680.94	618.26	156.15	695.99	715.64	129.95	743.48	551.9	159.02	758.82	538.71	290.55	593.14	434.35	176.98	611.84	325.18	170.65	562.1	363.59	183.45	643.14	395.14	163.24	520.18	200.98	191.74	533.52	211.11	285.44	439.36	211.24	244.83	435.51	186.92	279.55	428.55	184.32	217.74	582.13	89.309	171.12	622.58	86.904	282.55	673.21	70.494	231.93	493.26	1553.8	337.77	416.05	1294.7	315.3
